<svg width="1560" height="470" xmlns="http://www.w3.org/2000/svg" xmlns:xlink="http://www.w3.org/1999/xlink" xml:space="preserve" overflow="hidden"><defs><clipPath id="clip0"><rect x="657" y="274" width="1560" height="470"/></clipPath></defs><g clip-path="url(#clip0)" transform="translate(-657 -274)"><text fill="#081B3B" font-family="SansSerif,SansSerif_MSFontService,sans-serif" font-weight="700" font-size="223" transform="matrix(1 0 0 1 1107.73 559)"></text><text fill="#081B3B" font-family="SansSerif,SansSerif_MSFontService,sans-serif" font-weight="700" font-size="223" transform="matrix(1 0 0 1 1375.86 559)"></text><text fill="#081B3B" font-family="SansSerif,SansSerif_MSFontService,sans-serif" font-weight="700" font-size="223" transform="matrix(1 0 0 1 1607.32 559)"></text><text fill="#081B3B" font-family="SansSerif,SansSerif_MSFontService,sans-serif" font-weight="700" font-size="223" transform="matrix(1 0 0 1 1850.81 559)"></text><path d="M826.5 341 996 638 657 638 826.5 341Z" fill="#CA121E" fill-rule="evenodd"/><path d="M849.5 381 996 638 703 638 849.5 381Z" fill="#071A3A" fill-rule="evenodd"/><path d="M692.84 655.201 859.087 364.87 897.476 386.852 731.229 677.183Z" fill="#FFFFFF" fill-rule="evenodd"/><path d="M774.03 690.768 940.278 400.437 978.393 422.262 812.145 712.593Z" fill="#FFFFFF" fill-rule="evenodd"/><text fill="#CA121E" font-family="SansSerif,SansSerif_MSFontService,sans-serif" font-weight="400" font-size="46" transform="matrix(1 0 0 1 1108.47 631)"></text><text fill="#091E39" font-family="SansSerif,SansSerif_MSFontService,sans-serif" font-weight="400" font-size="46" transform="matrix(1 0 0 1 1146.86 631)"></text><text fill="#091E39" font-family="SansSerif,SansSerif_MSFontService,sans-serif" font-weight="400" font-size="46" transform="matrix(1 0 0 1 1172.07 631)"></text><text fill="#091E39" font-family="SansSerif,SansSerif_MSFontService,sans-serif" font-weight="400" font-size="46" transform="matrix(1 0 0 1 1184.67 631)"></text><text fill="#091E39" font-family="SansSerif,SansSerif_MSFontService,sans-serif" font-weight="400" font-size="46" transform="matrix(1 0 0 1 1209.88 631)"></text><text fill="#091E39" font-family="SansSerif,SansSerif_MSFontService,sans-serif" font-weight="400" font-size="46" transform="matrix(1 0 0 1 1235.09 631)"></text><text fill="#091E39" font-family="SansSerif,SansSerif_MSFontService,sans-serif" font-weight="400" font-size="46" transform="matrix(1 0 0 1 1260.3 631)"></text><text fill="#091E39" font-family="SansSerif,SansSerif_MSFontService,sans-serif" font-weight="400" font-size="46" transform="matrix(1 0 0 1 1272.9 631)"></text><text fill="#091E39" font-family="SansSerif,SansSerif_MSFontService,sans-serif" font-weight="400" font-size="46" transform="matrix(1 0 0 1 1285.5 631)"></text><text fill="#091E39" font-family="SansSerif,SansSerif_MSFontService,sans-serif" font-weight="400" font-size="46" transform="matrix(1 0 0 1 1310.71 631)"></text><text fill="#091E39" font-family="SansSerif,SansSerif_MSFontService,sans-serif" font-weight="400" font-size="46" transform="matrix(1 0 0 1 1326.18 631)"></text><text fill="#CA121E" font-family="SansSerif,SansSerif_MSFontService,sans-serif" font-weight="400" font-size="46" transform="matrix(1 0 0 1 1338.78 631)"></text><text fill="#091E39" font-family="SansSerif,SansSerif_MSFontService,sans-serif" font-weight="400" font-size="46" transform="matrix(1 0 0 1 1369.15 631)"></text><text fill="#091E39" font-family="SansSerif,SansSerif_MSFontService,sans-serif" font-weight="400" font-size="46" transform="matrix(1 0 0 1 1392.07 631)"></text><text fill="#091E39" font-family="SansSerif,SansSerif_MSFontService,sans-serif" font-weight="400" font-size="46" transform="matrix(1 0 0 1 1417.27 631)"></text><text fill="#091E39" font-family="SansSerif,SansSerif_MSFontService,sans-serif" font-weight="400" font-size="46" transform="matrix(1 0 0 1 1427.59 631)"></text><text fill="#091E39" font-family="SansSerif,SansSerif_MSFontService,sans-serif" font-weight="400" font-size="46" transform="matrix(1 0 0 1 1452.8 631)"></text><text fill="#091E39" font-family="SansSerif,SansSerif_MSFontService,sans-serif" font-weight="400" font-size="46" transform="matrix(1 0 0 1 1478 631)"></text><text fill="#091E39" font-family="SansSerif,SansSerif_MSFontService,sans-serif" font-weight="400" font-size="46" transform="matrix(1 0 0 1 1490.61 631)"></text><text fill="#091E39" font-family="SansSerif,SansSerif_MSFontService,sans-serif" font-weight="400" font-size="46" transform="matrix(1 0 0 1 1500.92 631)"></text><text fill="#091E39" font-family="SansSerif,SansSerif_MSFontService,sans-serif" font-weight="400" font-size="46" transform="matrix(1 0 0 1 1526.13 631)"></text><text fill="#091E39" font-family="SansSerif,SansSerif_MSFontService,sans-serif" font-weight="400" font-size="46" transform="matrix(1 0 0 1 1551.34 631)"></text><text fill="#CA121E" font-family="SansSerif,SansSerif_MSFontService,sans-serif" font-weight="400" font-size="46" transform="matrix(1 0 0 1 1563.94 631)"></text><text fill="#091E39" font-family="SansSerif,SansSerif_MSFontService,sans-serif" font-weight="400" font-size="46" transform="matrix(1 0 0 1 1597.17 631)"></text><text fill="#091E39" font-family="SansSerif,SansSerif_MSFontService,sans-serif" font-weight="400" font-size="46" transform="matrix(1 0 0 1 1622.38 631)"></text><text fill="#091E39" font-family="SansSerif,SansSerif_MSFontService,sans-serif" font-weight="400" font-size="46" transform="matrix(1 0 0 1 1637.85 631)"></text><text fill="#091E39" font-family="SansSerif,SansSerif_MSFontService,sans-serif" font-weight="400" font-size="46" transform="matrix(1 0 0 1 1663.06 631)"></text><text fill="#091E39" font-family="SansSerif,SansSerif_MSFontService,sans-serif" font-weight="400" font-size="46" transform="matrix(1 0 0 1 1688.26 631)"></text><text fill="#091E39" font-family="SansSerif,SansSerif_MSFontService,sans-serif" font-weight="400" font-size="46" transform="matrix(1 0 0 1 1703.73 631)"></text><text fill="#091E39" font-family="SansSerif,SansSerif_MSFontService,sans-serif" font-weight="400" font-size="46" transform="matrix(1 0 0 1 1728.94 631)"></text><text fill="#091E39" font-family="SansSerif,SansSerif_MSFontService,sans-serif" font-weight="400" font-size="46" transform="matrix(1 0 0 1 1741.55 631)"></text><text fill="#091E39" font-family="SansSerif,SansSerif_MSFontService,sans-serif" font-weight="400" font-size="46" transform="matrix(1 0 0 1 1766.75 631)"></text><text fill="#CA121E" font-family="SansSerif,SansSerif_MSFontService,sans-serif" font-weight="400" font-size="46" transform="matrix(1 0 0 1 1779.36 631)"></text><text fill="#091E39" font-family="SansSerif,SansSerif_MSFontService,sans-serif" font-weight="400" font-size="46" transform="matrix(1 0 0 1 1809.72 631)"></text><text fill="#091E39" font-family="SansSerif,SansSerif_MSFontService,sans-serif" font-weight="400" font-size="46" transform="matrix(1 0 0 1 1832.64 631)"></text><text fill="#091E39" font-family="SansSerif,SansSerif_MSFontService,sans-serif" font-weight="400" font-size="46" transform="matrix(1 0 0 1 1855.56 631)"></text><text fill="#091E39" font-family="SansSerif,SansSerif_MSFontService,sans-serif" font-weight="400" font-size="46" transform="matrix(1 0 0 1 1880.76 631)"></text><text fill="#091E39" font-family="SansSerif,SansSerif_MSFontService,sans-serif" font-weight="400" font-size="46" transform="matrix(1 0 0 1 1891.08 631)"></text><text fill="#091E39" font-family="SansSerif,SansSerif_MSFontService,sans-serif" font-weight="400" font-size="46" transform="matrix(1 0 0 1 1901.39 631)"></text><text fill="#091E39" font-family="SansSerif,SansSerif_MSFontService,sans-serif" font-weight="400" font-size="46" transform="matrix(1 0 0 1 1926.6 631)"></text><text fill="#091E39" font-family="SansSerif,SansSerif_MSFontService,sans-serif" font-weight="400" font-size="46" transform="matrix(1 0 0 1 1951.81 631)"></text><text fill="#091E39" font-family="SansSerif,SansSerif_MSFontService,sans-serif" font-weight="400" font-size="46" transform="matrix(1 0 0 1 1974.72 631)"></text><text fill="#091E39" font-family="SansSerif,SansSerif_MSFontService,sans-serif" font-weight="400" font-size="46" transform="matrix(1 0 0 1 1999.93 631)"></text><path d="M1045.5 309.5 1045.5 677.308" stroke="#081B3B" stroke-width="4.58333" stroke-linejoin="round" stroke-miterlimit="10" fill="none" fill-rule="evenodd"/></g></svg>